<svg width="150" height="28" viewBox="0 0 150 28" fill="none" xmlns="http://www.w3.org/2000/svg">
<g clip-path="url(#clip0_2697_601)">
<path d="M41.6104 14.4988C42.0884 15.1417 42.3087 15.94 42.2281 16.737C42.1475 17.534 41.7719 18.272 41.1749 18.8062C40.3056 19.4385 39.2424 19.7466 38.1697 19.6772H32.1377V7.51298H37.9738C39.0147 7.45134 40.0459 7.74292 40.9005 8.34049C41.2512 8.61541 41.5308 8.97054 41.7158 9.37602C41.9007 9.78149 41.9855 10.2255 41.9632 10.6705C41.9964 11.2988 41.8091 11.9189 41.4338 12.4239C41.0585 12.9288 40.5187 13.2868 39.9075 13.4361C40.5845 13.5739 41.1892 13.9512 41.6104 14.4988ZM35.513 12.3473H37.2246C38.0957 12.3473 38.5007 11.9946 38.5007 11.2934C38.5007 10.5922 38.0652 10.2045 37.2246 10.2045H35.513V12.3473ZM38.7621 15.8882C38.7719 15.7303 38.7466 15.5722 38.6878 15.4253C38.6291 15.2784 38.5384 15.1464 38.4223 15.0389C38.1485 14.8295 37.8083 14.7259 37.4642 14.7471H35.513V16.9596H37.4816C38.341 16.9596 38.7708 16.6024 38.7708 15.8882H38.7621Z" fill="#201B6D"/>
<path d="M43.7181 12.2077C44.038 11.498 44.553 10.8938 45.2032 10.4656C45.8268 10.0622 46.5554 9.85159 47.2981 9.86021C47.9032 9.84084 48.503 9.97732 49.0402 10.2565C49.5053 10.5048 49.8938 10.8752 50.1638 11.3279V9.98216H53.5435V19.6857H50.1595V18.3399C49.8872 18.794 49.4955 19.1646 49.0271 19.4113C48.4898 19.69 47.89 19.8264 47.285 19.8076C46.5424 19.8162 45.8137 19.6057 45.1901 19.2023C44.5398 18.7742 44.0247 18.17 43.705 17.4601C43.3291 16.6412 43.143 15.7479 43.1606 14.847C43.1408 13.936 43.3316 13.0328 43.7181 12.2077ZM49.6412 13.3662C49.4786 13.1969 49.2835 13.0622 49.0676 12.9702C48.8517 12.8782 48.6194 12.8308 48.3847 12.8308C48.15 12.8308 47.9177 12.8782 47.7018 12.9702C47.4859 13.0622 47.2908 13.1969 47.1282 13.3662C46.7739 13.7735 46.594 14.3038 46.6274 14.8426C46.5972 15.381 46.7767 15.9101 47.1282 16.3191C47.2866 16.4949 47.481 16.6346 47.6982 16.7286C47.9154 16.8225 48.1503 16.8685 48.3869 16.8635C48.622 16.8679 48.8553 16.8224 49.0715 16.7301C49.2877 16.6377 49.4819 16.5006 49.6412 16.3278C49.9996 15.9189 50.1827 15.3854 50.1508 14.8426C50.1647 14.5739 50.1253 14.3051 50.0349 14.0517C49.9445 13.7983 49.8047 13.5653 49.6238 13.3662H49.6412Z" fill="#201B6D"/>
<path d="M64.4667 11.0271C65.1617 11.8724 65.5131 12.9484 65.4509 14.041V19.7028H62.0669V14.4896C62.0925 14.0146 61.9369 13.5476 61.6314 13.183C61.4836 13.0254 61.3036 12.9015 61.1038 12.8196C60.9039 12.7377 60.6887 12.6997 60.4729 12.7083C60.2516 12.6972 60.0305 12.7339 59.8246 12.8158C59.6187 12.8977 59.4328 13.023 59.2795 13.183C58.9741 13.5476 58.8184 14.0146 58.844 14.4896V19.6854H55.46V9.99927H58.844V11.3799C59.155 10.9323 59.5706 10.5675 60.0548 10.3172C60.5928 10.0396 61.1915 9.90042 61.7969 9.91217C62.2968 9.88788 62.7958 9.97535 63.2576 10.1682C63.7195 10.3611 64.1325 10.6545 64.4667 11.0271Z" fill="#201B6D"/>
<path d="M72.6065 10.2788C73.0759 10.5242 73.4679 10.8951 73.7389 11.3502V10.0044H77.1229V19.586C77.1434 20.4302 76.9737 21.2682 76.6264 22.038C76.2775 22.7681 75.7157 23.3755 75.015 23.7801C74.1668 24.2463 73.2079 24.4736 72.2407 24.4378C70.9596 24.5031 69.6943 24.1315 68.652 23.3838C68.209 23.0407 67.8432 22.6082 67.5783 22.1145C67.3135 21.6208 67.1554 21.0768 67.1145 20.518H70.4463C70.478 20.6678 70.5404 20.8095 70.6296 20.9339C70.7188 21.0584 70.8329 21.1629 70.9646 21.241C71.2901 21.4267 71.6617 21.5158 72.036 21.498C73.1974 21.498 73.7781 20.8534 73.7781 19.5642V18.323C73.5071 18.778 73.1151 19.1489 72.6457 19.3944C72.1164 19.6694 71.5261 19.8058 70.9298 19.7907C70.1857 19.7994 69.4556 19.5888 68.8305 19.1853C68.1802 18.7573 67.6651 18.1531 67.3454 17.4432C66.9715 16.6236 66.7855 15.7308 66.801 14.83C66.7832 13.9291 66.9693 13.0358 67.3454 12.2169C67.6653 11.5072 68.1804 10.903 68.8305 10.4748C69.4556 10.0713 70.1857 9.8607 70.9298 9.8694C71.514 9.86492 72.0901 10.0056 72.6065 10.2788ZM73.2293 13.371C73.0668 13.2018 72.8717 13.0671 72.6557 12.9751C72.4398 12.8831 72.2075 12.8356 71.9728 12.8356C71.7381 12.8356 71.5059 12.8831 71.2899 12.9751C71.074 13.0671 70.8789 13.2018 70.7163 13.371C70.364 13.7795 70.1844 14.309 70.2155 14.8475C70.1872 15.3856 70.3664 15.9141 70.7163 16.3239C70.8789 16.4932 71.074 16.6279 71.2899 16.7199C71.5059 16.8119 71.7381 16.8593 71.9728 16.8593C72.2075 16.8593 72.4398 16.8119 72.6557 16.7199C72.8717 16.6279 73.0668 16.4932 73.2293 16.3239C73.5878 15.9151 73.7708 15.3815 73.7389 14.8388C73.7706 14.3 73.5874 13.7705 73.2293 13.3667V13.371Z" fill="#201B6D"/>
<path d="M82.445 6.90723V19.6856H79.0566V6.90723H82.445Z" fill="#201B6D"/>
<path d="M84.3702 12.2077C84.6901 11.498 85.2052 10.8938 85.8553 10.4656C86.4789 10.0622 87.2076 9.85159 87.9502 9.86021C88.5553 9.84084 89.1552 9.97732 89.6923 10.2565C90.1574 10.5048 90.5459 10.8752 90.816 11.3279V9.98216H94.2V19.6857H90.816V18.3399C90.548 18.7976 90.1592 19.1728 89.6923 19.4244C89.1615 19.6994 88.5697 19.8358 87.972 19.8207C87.2294 19.8293 86.5007 19.6187 85.8771 19.2153C85.2268 18.7873 84.7117 18.1831 84.392 17.4732C84.0161 16.6543 83.83 15.761 83.8476 14.8601C83.8148 13.9475 83.9937 13.0397 84.3702 12.2077ZM90.2933 13.3662C90.1308 13.1969 89.9357 13.0622 89.7198 12.9702C89.5038 12.8782 89.2716 12.8308 89.0368 12.8308C88.8021 12.8308 88.5699 12.8782 88.3539 12.9702C88.138 13.0622 87.9429 13.1969 87.7804 13.3662C87.426 13.7735 87.2461 14.3038 87.2795 14.8426C87.2494 15.381 87.4289 15.9101 87.7804 16.3191C87.9383 16.4954 88.1327 16.6354 88.35 16.7294C88.5673 16.8234 88.8023 16.8691 89.039 16.8635C89.2741 16.8679 89.5074 16.8224 89.7236 16.7301C89.9398 16.6377 90.134 16.5006 90.2933 16.3278C90.6518 15.9189 90.8348 15.3854 90.8029 14.8426C90.8192 14.5751 90.7826 14.307 90.6952 14.0537C90.6077 13.8003 90.4712 13.5667 90.2933 13.3662Z" fill="#201B6D"/>
<path d="M104.296 8.27903C105.23 8.76415 106.002 9.51203 106.517 10.4305C107.049 11.3984 107.317 12.4885 107.297 13.5924C107.314 14.6902 107.042 15.7733 106.508 16.7326C105.987 17.6559 105.214 18.4113 104.279 18.9102C103.249 19.4498 102.1 19.7195 100.938 19.6942H96.1211V7.5125H100.938C102.103 7.4865 103.257 7.74987 104.296 8.27903ZM103.011 15.8877C103.304 15.5851 103.531 15.2246 103.676 14.8293C103.822 14.4341 103.883 14.0128 103.856 13.5924C103.883 13.1675 103.822 12.7415 103.677 12.3413C103.531 11.941 103.305 11.5752 103.011 11.2667C102.696 10.9834 102.328 10.7651 101.928 10.6246C101.528 10.4841 101.104 10.424 100.681 10.4479H99.5051V16.6978H100.681C101.534 16.7469 102.372 16.4556 103.011 15.8877Z" fill="#F04E23"/>
<path d="M113.582 10.3956C114.107 10.0778 114.71 9.91052 115.324 9.91212V13.5226H114.374C113.794 13.4809 113.216 13.6342 112.732 13.9582C112.536 14.1523 112.386 14.3883 112.294 14.6485C112.202 14.9087 112.17 15.1864 112.201 15.4607V19.6897H108.812V9.99922H112.201V11.7065C112.56 11.1738 113.031 10.7263 113.582 10.3956Z" fill="#F04E23"/>
<path d="M132.662 10.2785C133.189 10.0023 133.779 9.86589 134.374 9.88216C135.118 9.87398 135.848 10.0845 136.473 10.4875C137.122 10.917 137.637 11.5208 137.958 12.2296C138.334 13.0486 138.52 13.9419 138.502 14.8428C138.518 15.7435 138.332 16.6364 137.958 17.456C137.637 18.1649 137.122 18.7688 136.473 19.1981C135.848 19.6011 135.118 19.8116 134.374 19.8035C133.781 19.8196 133.195 19.6831 132.671 19.4071C132.207 19.1542 131.817 18.785 131.538 18.3357V24.3112H128.154V9.99975H131.538V11.3455C131.809 10.8944 132.197 10.5255 132.662 10.2785ZM134.552 13.362C134.39 13.1941 134.195 13.0605 133.98 12.9693C133.765 12.8781 133.534 12.8311 133.3 12.8311C133.066 12.8311 132.835 12.8781 132.62 12.9693C132.405 13.0605 132.21 13.1941 132.048 13.362C131.693 13.766 131.51 14.2927 131.538 14.8297C131.509 15.3722 131.692 15.9049 132.048 16.3149C132.207 16.4877 132.401 16.6248 132.618 16.7172C132.834 16.8095 133.067 16.855 133.302 16.8506C133.537 16.8544 133.771 16.8078 133.986 16.7139C134.202 16.62 134.395 16.4809 134.552 16.3062C134.908 15.8995 135.091 15.3696 135.062 14.8297C135.093 14.291 134.91 13.7618 134.552 13.3577V13.362Z" fill="#F04E23"/>
<path d="M120.049 11.9335C120.137 11.9345 120.224 11.9569 120.301 11.9988L124.125 14.2069C124.201 14.2515 124.264 14.3152 124.308 14.3916C124.351 14.468 124.374 14.5544 124.374 14.6424C124.374 14.7305 124.351 14.8169 124.308 14.8933C124.264 14.9697 124.201 15.0334 124.125 15.078L120.301 17.2861C120.225 17.3318 120.138 17.3563 120.049 17.357C119.96 17.3578 119.872 17.3348 119.795 17.2904C119.718 17.2461 119.654 17.1819 119.609 17.1046C119.565 17.0273 119.543 16.9396 119.544 16.8506V12.4561C119.543 12.3896 119.556 12.3236 119.581 12.2621C119.606 12.2005 119.643 12.1446 119.69 12.0976C119.737 12.0505 119.793 12.0133 119.855 11.9882C119.916 11.963 119.982 11.9503 120.049 11.9509M120.049 9.33773C119.227 9.33888 118.439 9.6661 117.859 10.2475C117.278 10.8289 116.952 11.617 116.952 12.4387V16.8549C116.952 17.3983 117.095 17.932 117.367 18.4026C117.638 18.8732 118.029 19.2641 118.499 19.5359C118.97 19.8078 119.504 19.951 120.047 19.9514C120.59 19.9517 121.124 19.809 121.595 19.5378L125.423 17.3296C125.893 17.0571 126.284 16.6658 126.555 16.195C126.826 15.7241 126.969 15.1902 126.969 14.6468C126.969 14.1034 126.826 13.5695 126.555 13.0986C126.284 12.6278 125.893 12.2365 125.423 11.964L121.595 9.75584C121.127 9.47623 120.594 9.32593 120.049 9.32031V9.33773Z" fill="#F04E23"/>
<path d="M25.4481 15.1343L15.9187 9.6336C15.3191 9.2838 14.6377 9.09859 13.9435 9.09669C13.2493 9.0948 12.5669 9.2763 11.9653 9.62282C11.3638 9.96934 10.8644 10.4686 10.5178 11.0701C10.1711 11.6715 9.98947 12.3539 9.99122 13.0481V24.0539C9.99037 24.7468 10.1722 25.4277 10.5184 26.028C10.8646 26.6282 11.3629 27.1266 11.9631 27.4729C12.5634 27.8191 13.2443 28.001 13.9372 28.0002C14.6301 27.9995 15.3106 27.816 15.91 27.4684L25.4394 21.9677C26.0379 21.6204 26.5346 21.122 26.88 20.5224C27.2253 19.9228 27.4071 19.243 27.4071 18.551C27.4071 17.859 27.2253 17.1792 26.88 16.5796C26.5346 15.98 26.0379 15.4816 25.4394 15.1343H25.4481ZM23.1877 19.3981L15.2175 24.006C15.07 24.0939 14.9015 24.1405 14.7298 24.141C14.6007 24.141 14.4729 24.1155 14.3537 24.066C14.2346 24.0165 14.1263 23.9439 14.0353 23.8524C13.9442 23.761 13.8721 23.6524 13.8232 23.533C13.7742 23.4136 13.7492 23.2858 13.7498 23.1567V13.9453C13.7472 13.7725 13.7908 13.6022 13.876 13.4518C13.9612 13.3015 14.0849 13.1766 14.2345 13.0901C14.3841 13.0035 14.554 12.9584 14.7268 12.9595C14.8996 12.9605 15.069 13.0077 15.2175 13.096L23.1877 17.7039C23.337 17.7892 23.4612 17.9125 23.5475 18.0613C23.6339 18.21 23.6793 18.379 23.6793 18.551C23.6793 18.723 23.6339 18.892 23.5475 19.0407C23.4612 19.1895 23.337 19.3128 23.1877 19.3981Z" fill="#F04E23"/>
<path d="M13.7409 7.8307V4.5686C13.7404 4.44147 13.765 4.31548 13.8134 4.19792C13.8617 4.08035 13.9329 3.97354 14.0228 3.88364C14.1127 3.79374 14.2195 3.72254 14.3371 3.67416C14.4547 3.62577 14.5807 3.60116 14.7078 3.60173C14.8763 3.6018 15.0417 3.64692 15.1869 3.73239L23.0264 8.26623C23.1728 8.35124 23.2944 8.47322 23.3789 8.61997C23.4634 8.76672 23.5078 8.93309 23.5078 9.10244C23.5078 9.27178 23.4634 9.43815 23.3789 9.5849C23.2944 9.73165 23.1728 9.85364 23.0264 9.93865L21.0099 11.1015L24.616 13.1833L24.8251 13.057C25.5198 12.6567 26.0967 12.0804 26.4979 11.3861C26.8991 10.6919 27.1103 9.90424 27.1103 9.10244C27.1103 8.30063 26.8991 7.51297 26.4979 6.81875C26.0967 6.12452 25.5198 5.54822 24.8251 5.14785L16.9856 0.614022C16.2915 0.212259 15.5038 0.000475852 14.7018 8.00951e-07C13.8998 -0.00047425 13.1118 0.210376 12.4172 0.611317C11.7227 1.01226 11.146 1.58914 10.7453 2.28386C10.3446 2.97858 10.134 3.76661 10.1348 4.5686V9.47699C11.0715 8.47243 12.3683 7.88038 13.7409 7.8307Z" fill="#201B6D"/>
</g>
<defs>
<clipPath id="clip0_2697_601">
<rect width="128.502" height="28" fill="white" transform="translate(10)"/>
</clipPath>
</defs>
</svg>
