<svg width="161" height="36" viewBox="0 0 161 36" fill="none" xmlns="http://www.w3.org/2000/svg">
<g clip-path="url(#clip0_9443_3408)">
<path d="M39.4567 18.3684C40.0519 19.1688 40.3262 20.1628 40.2259 21.1552C40.1255 22.1475 39.6578 23.0665 38.9144 23.7316C37.8321 24.5189 36.5083 24.9026 35.1727 24.8162H27.6621V9.67024H34.9287C36.2248 9.59349 37.5088 9.95654 38.5728 10.7006C39.0095 11.0429 39.3577 11.4851 39.5879 11.9899C39.8182 12.4948 39.9238 13.0476 39.896 13.6018C39.9373 14.384 39.7042 15.1562 39.2369 15.7849C38.7696 16.4136 38.0974 16.8594 37.3364 17.0453C38.1794 17.2167 38.9322 17.6865 39.4567 18.3684ZM31.8648 15.6896H33.996C35.0805 15.6896 35.5848 15.2503 35.5848 14.3772C35.5848 13.5042 35.0426 13.0215 33.996 13.0215H31.8648V15.6896ZM35.9102 20.0983C35.9225 19.9017 35.8909 19.7049 35.8178 19.522C35.7446 19.3391 35.6317 19.1747 35.4872 19.0409C35.1462 18.7802 34.7226 18.6512 34.2942 18.6775H31.8648V21.4323H34.3159C35.386 21.4323 35.9211 20.9877 35.9211 20.0983H35.9102Z" fill="white"/>
<path d="M42.0806 15.515C42.479 14.6313 43.1203 13.879 43.9298 13.3459C44.7062 12.8436 45.6135 12.5814 46.5382 12.5921C47.2916 12.568 48.0385 12.7379 48.7073 13.0856C49.2864 13.3946 49.7701 13.8559 50.1064 14.4196V12.7439H54.3145V24.826H50.101V23.1503C49.762 23.7157 49.2743 24.1771 48.691 24.4843C48.022 24.8313 47.2752 25.0012 46.5219 24.9778C45.5972 24.9885 44.6899 24.7263 43.9135 24.224C43.1038 23.6911 42.4625 22.9388 42.0644 22.0549C41.5963 21.0352 41.3646 19.923 41.3865 18.8012C41.3618 17.667 41.5994 16.5424 42.0806 15.515ZM49.4556 16.9575C49.2532 16.7467 49.0103 16.579 48.7415 16.4644C48.4726 16.3499 48.1834 16.2908 47.8912 16.2908C47.5989 16.2908 47.3097 16.3499 47.0409 16.4644C46.772 16.579 46.5291 16.7467 46.3267 16.9575C45.8855 17.4646 45.6615 18.1249 45.7031 18.7958C45.6655 19.4661 45.889 20.125 46.3267 20.6341C46.5238 20.8531 46.7659 21.027 47.0363 21.144C47.3068 21.261 47.5993 21.3183 47.8939 21.312C48.1865 21.3175 48.4771 21.2608 48.7463 21.1459C49.0155 21.0309 49.2572 20.8602 49.4556 20.645C49.9019 20.1359 50.1298 19.4716 50.0901 18.7958C50.1075 18.4612 50.0585 18.1265 49.9458 17.811C49.8332 17.4955 49.6592 17.2054 49.434 16.9575H49.4556Z" fill="white"/>
<path d="M67.9155 14.0455C68.781 15.098 69.2186 16.4377 69.1411 17.7981V24.8478H64.9276V18.3567C64.9595 17.7653 64.7657 17.1838 64.3853 16.7298C64.2013 16.5337 63.9772 16.3794 63.7284 16.2774C63.4795 16.1754 63.2116 16.1281 62.9428 16.1387C62.6673 16.125 62.392 16.1707 62.1356 16.2727C61.8793 16.3747 61.6478 16.5306 61.457 16.7298C61.0766 17.1838 60.8828 17.7653 60.9147 18.3567V24.8261H56.7012V12.7657H60.9147V14.4848C61.3019 13.9275 61.8194 13.4732 62.4222 13.1616C63.0922 12.816 63.8377 12.6427 64.5914 12.6573C65.2138 12.627 65.8352 12.736 66.4102 12.9761C66.9852 13.2162 67.4995 13.5816 67.9155 14.0455Z" fill="white"/>
<path d="M78.0504 13.1155C78.6347 13.4211 79.1228 13.883 79.4603 14.4496V12.7739H83.6738V24.7041C83.6993 25.7552 83.488 26.7987 83.0556 27.7571C82.6212 28.6662 81.9217 29.4224 81.0492 29.9262C79.993 30.5067 78.7992 30.7897 77.5948 30.7451C75.9997 30.8265 74.4242 30.3638 73.1265 29.4328C72.5749 29.0056 72.1195 28.4671 71.7897 27.8523C71.4599 27.2376 71.2631 26.5603 71.2122 25.8646H75.3606C75.4001 26.0511 75.4778 26.2274 75.5888 26.3824C75.6999 26.5373 75.842 26.6675 76.006 26.7647C76.4112 26.9959 76.8739 27.1069 77.34 27.0847C78.7861 27.0847 79.5091 26.2821 79.5091 24.677V23.1315C79.1716 23.6981 78.6835 24.1599 78.0992 24.4655C77.4401 24.808 76.705 24.9777 75.9626 24.959C75.0362 24.9698 74.1271 24.7076 73.3488 24.2052C72.5391 23.6722 71.8977 22.9199 71.4996 22.0361C71.034 21.0156 70.8024 19.9039 70.8218 18.7824C70.7997 17.6606 71.0314 16.5483 71.4996 15.5287C71.898 14.645 72.5393 13.8927 73.3488 13.3596C74.1271 12.8571 75.0362 12.595 75.9626 12.6058C76.69 12.6002 77.4074 12.7754 78.0504 13.1155ZM78.8258 16.9657C78.6234 16.755 78.3805 16.5873 78.1116 16.4727C77.8428 16.3582 77.5536 16.2991 77.2613 16.2991C76.9691 16.2991 76.6799 16.3582 76.411 16.4727C76.1422 16.5873 75.8993 16.755 75.6969 16.9657C75.2582 17.4743 75.0346 18.1336 75.0732 18.8041C75.038 19.4741 75.2612 20.1321 75.6969 20.6424C75.8993 20.8532 76.1422 21.0209 76.411 21.1354C76.6799 21.25 76.9691 21.309 77.2613 21.309C77.5536 21.309 77.8428 21.25 78.1116 21.1354C78.3805 21.0209 78.6234 20.8532 78.8258 20.6424C79.2721 20.1333 79.5 19.469 79.4603 18.7932C79.4998 18.1223 79.2716 17.4632 78.8258 16.9603V16.9657Z" fill="white"/>
<path d="M90.301 8.91797V24.8285H86.082V8.91797H90.301Z" fill="white"/>
<path d="M92.6984 15.515C93.0968 14.6313 93.7381 13.879 94.5476 13.3459C95.324 12.8436 96.2313 12.5814 97.156 12.5921C97.9094 12.568 98.6563 12.7379 99.3251 13.0856C99.9042 13.3946 100.388 13.8559 100.724 14.4196V12.7439H104.938V24.826H100.724V23.1503C100.39 23.7202 99.9065 24.1873 99.3251 24.5006C98.6641 24.8431 97.9273 25.0128 97.1831 24.9941C96.2584 25.0048 95.3511 24.7426 94.5747 24.2403C93.765 23.7074 93.1237 22.955 92.7256 22.0712C92.2575 21.0515 92.0258 19.9393 92.0477 18.8175C92.0069 17.6812 92.2297 16.5509 92.6984 15.515ZM100.073 16.9575C99.871 16.7467 99.6281 16.579 99.3593 16.4644C99.0904 16.3499 98.8012 16.2908 98.509 16.2908C98.2167 16.2908 97.9275 16.3499 97.6587 16.4644C97.3898 16.579 97.1469 16.7467 96.9445 16.9575C96.5033 17.4646 96.2793 18.1249 96.3209 18.7958C96.2834 19.4661 96.5069 20.125 96.9445 20.6341C97.1412 20.8537 97.3832 21.028 97.6537 21.145C97.9243 21.262 98.217 21.319 98.5117 21.312C98.8044 21.3175 99.0949 21.2608 99.3641 21.1459C99.6333 21.0309 99.875 20.8602 100.073 20.645C100.52 20.1359 100.748 19.4716 100.708 18.7958C100.728 18.4627 100.683 18.1289 100.574 17.8134C100.465 17.498 100.295 17.2071 100.073 16.9575Z" fill="white"/>
<path d="M117.507 10.6246C118.67 11.2286 119.632 12.1598 120.272 13.3034C120.934 14.5085 121.269 15.8658 121.243 17.2404C121.265 18.6073 120.926 19.9558 120.262 21.1502C119.613 22.2998 118.65 23.2405 117.485 23.8617C116.203 24.5335 114.772 24.8693 113.326 24.8378H107.328V9.67015H113.326C114.777 9.63778 116.213 9.96571 117.507 10.6246ZM115.907 20.0982C116.272 19.7215 116.554 19.2726 116.735 18.7805C116.916 18.2883 116.992 17.7638 116.959 17.2404C116.993 16.7113 116.917 16.1809 116.736 15.6825C116.555 15.1842 116.273 14.7287 115.907 14.3446C115.515 13.9918 115.056 13.7201 114.558 13.5451C114.06 13.3701 113.533 13.2954 113.006 13.3251H111.542V21.1069H113.006C114.068 21.1681 115.112 20.8054 115.907 20.0982Z" fill="#F04E23"/>
<path d="M129.069 13.2621C129.723 12.8664 130.473 12.6582 131.238 12.6602V17.1557H130.056C129.333 17.1037 128.613 17.2946 128.011 17.698C127.767 17.9397 127.581 18.2336 127.466 18.5576C127.352 18.8815 127.312 19.2273 127.35 19.5688V24.8344H123.131V12.7686H127.35V14.8944C127.797 14.2311 128.383 13.6739 129.069 13.2621Z" fill="#F04E23"/>
<path d="M152.826 13.1123C153.482 12.7684 154.216 12.5986 154.957 12.6188C155.883 12.6086 156.792 12.8707 157.57 13.3726C158.379 13.9073 159.02 14.6591 159.42 15.5417C159.888 16.5613 160.12 17.6736 160.097 18.7954C160.117 19.9169 159.885 21.0286 159.42 22.0491C159.02 22.9318 158.379 23.6837 157.57 24.2182C156.792 24.7201 155.883 24.9822 154.957 24.972C154.219 24.9921 153.489 24.8221 152.836 24.4785C152.259 24.1635 151.773 23.7038 151.426 23.1445V30.5846H147.213V12.7652H151.426V14.4409C151.763 13.8792 152.247 13.4199 152.826 13.1123ZM155.179 16.9516C154.977 16.7425 154.734 16.5763 154.467 16.4627C154.199 16.3492 153.911 16.2906 153.62 16.2906C153.329 16.2906 153.041 16.3492 152.773 16.4627C152.505 16.5763 152.263 16.7425 152.061 16.9516C151.619 17.4546 151.391 18.1105 151.426 18.7791C151.39 19.4545 151.617 20.1178 152.061 20.6283C152.259 20.8435 152.501 21.0142 152.77 21.1292C153.039 21.2442 153.33 21.3008 153.623 21.2953C153.915 21.3 154.206 21.242 154.474 21.1251C154.743 21.0081 154.983 20.835 155.179 20.6175C155.623 20.1111 155.85 19.4513 155.813 18.7791C155.852 18.1083 155.624 17.4494 155.179 16.9462V16.9516Z" fill="#F04E23"/>
<path d="M137.121 15.1756C137.231 15.1768 137.339 15.2047 137.436 15.2569L142.197 18.0063C142.291 18.0618 142.37 18.1411 142.424 18.2362C142.479 18.3313 142.507 18.439 142.507 18.5485C142.507 18.6581 142.479 18.7658 142.424 18.8609C142.37 18.956 142.291 19.0353 142.197 19.0908L137.436 21.8402C137.341 21.8971 137.232 21.9276 137.121 21.9285C137.01 21.9295 136.901 21.9009 136.805 21.8456C136.709 21.7904 136.629 21.7105 136.574 21.6142C136.519 21.518 136.491 21.4088 136.492 21.2979V15.8263C136.491 15.7435 136.507 15.6614 136.539 15.5847C136.57 15.5081 136.616 15.4384 136.675 15.3799C136.733 15.3213 136.803 15.275 136.88 15.2437C136.956 15.2123 137.038 15.1965 137.121 15.1972M137.121 11.9436C136.098 11.945 135.118 12.3524 134.395 13.0763C133.672 13.8003 133.266 14.7815 133.266 15.8046V21.3033C133.266 21.9799 133.444 22.6445 133.782 23.2304C134.12 23.8163 134.606 24.303 135.192 24.6415C135.778 24.98 136.442 25.1584 137.119 25.1588C137.795 25.1592 138.46 24.9816 139.046 24.6438L143.813 21.8944C144.398 21.5551 144.884 21.0679 145.222 20.4816C145.56 19.8954 145.738 19.2306 145.738 18.554C145.738 17.8773 145.56 17.2126 145.222 16.6263C144.884 16.04 144.398 15.5528 143.813 15.2135L139.046 12.4642C138.464 12.116 137.8 11.9289 137.121 11.9219V11.9436Z" fill="#F04E23"/>
<path d="M19.3315 19.1621L7.4664 12.3131C6.71976 11.8775 5.87134 11.6469 5.00696 11.6445C4.14258 11.6422 3.29292 11.8682 2.54392 12.2996C1.79492 12.7311 1.17316 13.3527 0.741548 14.1016C0.309934 14.8505 0.0837755 15.7002 0.0859531 16.5645V30.268C0.0848898 31.1308 0.311299 31.9786 0.742357 32.726C1.17341 33.4733 1.79389 34.0939 2.54122 34.525C3.28856 34.9561 4.13635 35.1826 4.99913 35.1817C5.86191 35.1807 6.70919 34.9523 7.45555 34.5195L19.3207 27.6705C20.0659 27.2381 20.6844 26.6175 21.1144 25.8709C21.5444 25.1243 21.7707 24.2778 21.7707 23.4163C21.7707 22.5547 21.5444 21.7082 21.1144 20.9616C20.6844 20.215 20.0659 19.5945 19.3207 19.1621H19.3315ZM16.5171 24.471L6.59332 30.2083C6.4096 30.3178 6.19983 30.3759 5.98597 30.3764C5.82528 30.3764 5.66618 30.3447 5.51779 30.283C5.3694 30.2214 5.23465 30.131 5.12128 30.0172C5.00791 29.9033 4.91815 29.7681 4.85715 29.6195C4.79616 29.4708 4.76512 29.3116 4.76584 29.1509V17.6816C4.7626 17.4665 4.81682 17.2544 4.92291 17.0672C5.02899 16.88 5.1831 16.7245 5.36934 16.6167C5.55557 16.509 5.76718 16.4529 5.98234 16.4542C6.1975 16.4555 6.40842 16.5142 6.59332 16.6242L16.5171 22.3615C16.703 22.4678 16.8576 22.6213 16.9651 22.8065C17.0726 22.9917 17.1292 23.2021 17.1292 23.4163C17.1292 23.6304 17.0726 23.8408 16.9651 24.026C16.8576 24.2112 16.703 24.3648 16.5171 24.471Z" fill="#F04E23"/>
<path d="M4.75571 10.0665V6.00485C4.755 5.84655 4.78564 5.68968 4.84589 5.5433C4.90614 5.39692 4.99478 5.26392 5.10672 5.15199C5.21865 5.04006 5.35165 4.9514 5.49803 4.89116C5.64441 4.83091 5.80128 4.80026 5.95958 4.80098C6.16936 4.80107 6.37531 4.85724 6.55609 4.96367L16.3171 10.6088C16.4995 10.7147 16.6509 10.8665 16.7561 11.0493C16.8613 11.232 16.9167 11.4391 16.9167 11.65C16.9167 11.8608 16.8613 12.068 16.7561 12.2507C16.6509 12.4334 16.4995 12.5853 16.3171 12.6912L13.8064 14.1391L18.2965 16.7312L18.5568 16.5739C19.4217 16.0754 20.1401 15.3578 20.6396 14.4935C21.1391 13.6291 21.4021 12.6483 21.4021 11.65C21.4021 10.6517 21.1391 9.67093 20.6396 8.80654C20.1401 7.94214 19.4217 7.22458 18.5568 6.72608L8.7957 1.08093C7.93146 0.580693 6.95067 0.316999 5.9521 0.316407C4.95352 0.315816 3.97241 0.578349 3.10758 1.07757C2.24275 1.57678 1.52472 2.29507 1.0258 3.16007C0.52688 4.02508 0.26469 5.00627 0.265628 6.00485V12.1164C1.43191 10.8656 3.04666 10.1284 4.75571 10.0665Z" fill="white"/>
</g>
<defs>
<clipPath id="clip0_9443_3408">
<rect width="160" height="34.8632" fill="white" transform="translate(0.0976562 0.316406)"/>
</clipPath>
</defs>
</svg>
